<?xml version="1.0" encoding="UTF-8" standalone="no"?>
<!-- Generator: Adobe Illustrator 22.1.0, SVG Export Plug-In . SVG Version: 6.00 Build 0)  -->

<svg
   xmlns:dc="http://purl.org/dc/elements/1.1/"
   xmlns:cc="http://creativecommons.org/ns#"
   xmlns:rdf="http://www.w3.org/1999/02/22-rdf-syntax-ns#"
   xmlns:svg="http://www.w3.org/2000/svg"
   xmlns="http://www.w3.org/2000/svg"
   xmlns:sodipodi="http://sodipodi.sourceforge.net/DTD/sodipodi-0.dtd"
   xmlns:inkscape="http://www.inkscape.org/namespaces/inkscape"
   version="1.1"
   id="Layer_1"
   x="0px"
   y="0px"
   viewBox="0 0 387 234"
   style="enable-background:new 0 0 387 234;"
   xml:space="preserve"
   sodipodi:docname="frame.svg"
   inkscape:version="0.92.4 (5da689c313, 2019-01-14)"><metadata
   id="metadata3737"><rdf:RDF><cc:Work
       rdf:about=""><dc:format>image/svg+xml</dc:format><dc:type
         rdf:resource="http://purl.org/dc/dcmitype/StillImage" /><dc:title></dc:title></cc:Work></rdf:RDF></metadata><defs
   id="defs3735" /><sodipodi:namedview
   pagecolor="#ffffff"
   bordercolor="#666666"
   borderopacity="1"
   objecttolerance="10"
   gridtolerance="10"
   guidetolerance="10"
   inkscape:pageopacity="0"
   inkscape:pageshadow="2"
   inkscape:window-width="1440"
   inkscape:window-height="838"
   id="namedview3733"
   showgrid="false"
   inkscape:pagecheckerboard="true"
   inkscape:zoom="2.7307692"
   inkscape:cx="193.5"
   inkscape:cy="117"
   inkscape:window-x="-8"
   inkscape:window-y="-8"
   inkscape:window-maximized="1"
   inkscape:current-layer="Layer_1" />
<style
   type="text/css"
   id="style3726">
	.st0{fill:none;stroke:#A99E7E;stroke-miterlimit:10;}
</style>
<path
   class="st0"
   d="M385.5,232.5H1.5V1.5h384V232.5z"
   id="path3728" />
<path
   class="st0"
   d="M375.5,222.5v5h-364v-5h-5v-211h5v-5h364v5h5v211H375.5z"
   id="path3730" />
<path
   style="fill:#ffffff;stroke-width:0.36619717"
   d="M 1.9788732,117.10986 V 1.9408451 H 193.5 385.02113 V 117.10986 232.27887 H 193.5 1.9788732 Z m 373.9621368,108.30282 0.10829,-2.47183 2.47183,-0.10829 2.47183,-0.10828 V 116.91003 11.095775 h -2.56338 -2.56338 V 8.5323944 5.9690141 H 193.5 11.133803 V 8.5323944 11.095775 H 8.5704225 6.0070423 V 116.91003 222.72428 l 2.4718309,0.10828 2.4718308,0.10829 0.108281,2.47183 0.108281,2.47183 H 193.5 375.83273 Z"
   id="path3739"
   inkscape:connector-curvature="0" /><path
   style="fill:#ffffff;stroke-width:0.36619717"
   d="M 1.9788732,117.10986 V 1.9408451 H 193.5 385.02113 V 117.10986 232.27887 H 193.5 1.9788732 Z M 375.8662,225.32113 v -2.56338 h 2.56338 2.56338 V 116.92676 11.095775 h -2.56338 -2.56338 V 8.5323944 5.9690141 H 193.5 11.133803 V 8.5323944 11.095775 H 8.5704225 6.0070423 V 116.92676 222.75775 h 2.5633802 2.5633805 v 2.56338 2.56338 H 193.5 375.8662 Z"
   id="path3741"
   inkscape:connector-curvature="0" /></svg>