<?xml version="1.0" encoding="UTF-8" standalone="no"?>
<!-- Generator: Adobe Illustrator 22.1.0, SVG Export Plug-In . SVG Version: 6.00 Build 0)  -->

<svg
   xmlns:dc="http://purl.org/dc/elements/1.1/"
   xmlns:cc="http://creativecommons.org/ns#"
   xmlns:rdf="http://www.w3.org/1999/02/22-rdf-syntax-ns#"
   xmlns:svg="http://www.w3.org/2000/svg"
   xmlns="http://www.w3.org/2000/svg"
   xmlns:sodipodi="http://sodipodi.sourceforge.net/DTD/sodipodi-0.dtd"
   xmlns:inkscape="http://www.inkscape.org/namespaces/inkscape"
   version="1.1"
   id="Layer_1"
   x="0px"
   y="0px"
   viewBox="0 0 387 234"
   style="enable-background:new 0 0 387 234;"
   xml:space="preserve"
   sodipodi:docname="frame.svg"
   inkscape:version="0.92.4 (5da689c313, 2019-01-14)"><metadata
   id="metadata3757"><rdf:RDF><cc:Work
       rdf:about=""><dc:format>image/svg+xml</dc:format><dc:type
         rdf:resource="http://purl.org/dc/dcmitype/StillImage" /></cc:Work></rdf:RDF></metadata><defs
   id="defs3755" /><sodipodi:namedview
   pagecolor="#ffffff"
   bordercolor="#666666"
   borderopacity="1"
   objecttolerance="10"
   gridtolerance="10"
   guidetolerance="10"
   inkscape:pageopacity="0"
   inkscape:pageshadow="2"
   inkscape:window-width="1440"
   inkscape:window-height="838"
   id="namedview3753"
   showgrid="false"
   inkscape:zoom="11.313709"
   inkscape:cx="-9.1193621"
   inkscape:cy="152.73177"
   inkscape:window-x="-8"
   inkscape:window-y="-8"
   inkscape:window-maximized="1"
   inkscape:current-layer="Layer_1" />
<style
   type="text/css"
   id="style3746">
	.st0{fill:none;stroke:#A99E7E;stroke-miterlimit:10;}
</style>
<path
   class="st0"
   d="M385.5,232.5H1.5V1.5h384V232.5z"
   id="path3748" />
<path
   class="st0"
   d="M375.5,222.5v5h-364v-5h-5v-211h5v-5h364v5h5v211H375.5z"
   id="path3750" />
<path
   style="fill:#1a1a1a;stroke-width:0.5;opacity:0.9"
   d="M 1.938097,116.95196 V 1.7006729 l 191.625003,0.1256459 191.625,0.125646 v 114.9999952 115 l -191.625,0.12565 -191.625003,0.12564 z m 374.000003,108.25 v -2.5 h 2.5 2.5 v -105.75 -105.749995 h -2.5 -2.5 v -2.5000002 -2.5 H 193.71549 11.492888 l -0.152395,2.375 -0.152396,2.3750002 -2.375,0.152395 -2.375,0.152396 V 116.95196 222.64717 l 2.375,0.1524 2.375,0.15239 0.152396,2.375 0.152395,2.375 H 193.71549 375.9381 Z"
   id="path3817"
   inkscape:connector-curvature="0" /></svg>